<svg xmlns="http://www.w3.org/2000/svg" xmlns:xlink="http://www.w3.org/1999/xlink" width="1000px" height="500px" viewBox="0 0 1000 500" zoomAndPan="disable" preserveAspectRatio="none">

    <style type="text/css"><![CDATA[
		line
		{
			stroke: rgba(255,255,255,0.05);
			stroke-width: 1px;
		}
    ]]></style>
	<rect width="100%" height="100%" fill="darkslategrey" />

	<line x1="500" y1="0" x2="-100" y2="500" />
	<line x1="500" y1="0" x2="-200" y2="500" />
	<line x1="500" y1="0" x2="-300" y2="500" />
	<line x1="500" y1="0" x2="-400" y2="500" />
	<line x1="500" y1="0" x2="-500" y2="500" />
	<line x1="500" y1="0" x2="-600" y2="500" />
	<line x1="500" y1="0" x2="-700" y2="500" />
	<line x1="500" y1="0" x2="-800" y2="500" />
	<line x1="500" y1="0" x2="-900" y2="500" />
	<line x1="500" y1="0" x2="-1000" y2="490" />
	<line x1="500" y1="0" x2="-1000" y2="450" />
	<line x1="500" y1="0" x2="-1000" y2="400" />
	<line x1="500" y1="0" x2="-1000" y2="350" />
	<line x1="500" y1="0" x2="-1000" y2="300" />
	<line x1="500" y1="0" x2="-1000" y2="250" />
	<line x1="500" y1="0" x2="-1000" y2="200" />
	<line x1="500" y1="0" x2="-1000" y2="150" />
	<line x1="500" y1="0" x2="-1000" y2="100" />
	<line x1="500" y1="0" x2="-1000" y2="50" />



	<line x1="500" y1="0" x2="0" y2="500" />
    <line x1="500" y1="0" x2="100" y2="500" />
    <line x1="500" y1="0" x2="200" y2="500" />
    <line x1="500" y1="0" x2="300" y2="500" />
    <line x1="500" y1="0" x2="400" y2="500" />
    <line x1="500" y1="0" x2="500" y2="500" />
    <line x1="500" y1="0" x2="600" y2="500" />
    <line x1="500" y1="0" x2="700" y2="500" />
    <line x1="500" y1="0" x2="800" y2="500" />
    <line x1="500" y1="0" x2="900" y2="500" />
    <line x1="500" y1="0" x2="1000" y2="500" />
	<line x1="500" y1="0" x2="1100" y2="500" />
	<line x1="500" y1="0" x2="1200" y2="500" />
	<line x1="500" y1="0" x2="1300" y2="500" />
	<line x1="500" y1="0" x2="1400" y2="500" />
	<line x1="500" y1="0" x2="1500" y2="500" />
	<line x1="500" y1="0" x2="1600" y2="500" />
	<line x1="500" y1="0" x2="1700" y2="500" />
	<line x1="500" y1="0" x2="1800" y2="500" />
	<line x1="500" y1="0" x2="1900" y2="500" />
	<line x1="500" y1="0" x2="2000" y2="490" />
	<line x1="500" y1="0" x2="2000" y2="450" />
	<line x1="500" y1="0" x2="2000" y2="400" />
	<line x1="500" y1="0" x2="2000" y2="350" />
	<line x1="500" y1="0" x2="2000" y2="300" />
	<line x1="500" y1="0" x2="2000" y2="250" />
	<line x1="500" y1="0" x2="2000" y2="200" />
	<line x1="500" y1="0" x2="2000" y2="150" />
	<line x1="500" y1="0" x2="2000" y2="100" />
	<line x1="500" y1="0" x2="2000" y2="50" />




</svg>